<?xml version="1.0" encoding="UTF-8" standalone="no"?>
<!-- Created with Inkscape (http://www.inkscape.org/) -->

<svg
   xmlns:osb="http://www.openswatchbook.org/uri/2009/osb"
   xmlns:dc="http://purl.org/dc/elements/1.1/"
   xmlns:cc="http://creativecommons.org/ns#"
   xmlns:rdf="http://www.w3.org/1999/02/22-rdf-syntax-ns#"
   xmlns:svg="http://www.w3.org/2000/svg"
   xmlns="http://www.w3.org/2000/svg"
   xmlns:sodipodi="http://sodipodi.sourceforge.net/DTD/sodipodi-0.dtd"
   xmlns:inkscape="http://www.inkscape.org/namespaces/inkscape"
   width="210mm"
   height="297mm"
   viewBox="0 0 210 297"
   version="1.1"
   id="svg8"
   inkscape:version="0.92.1 unknown"
   sodipodi:docname="drawing.svg">
  <defs
     id="defs2">
    <linearGradient
       id="linearGradient6151"
       osb:paint="solid">
      <stop
         style="stop-color:#1a1a1a;stop-opacity:1;"
         offset="0"
         id="stop6149" />
    </linearGradient>
  </defs>
  <sodipodi:namedview
     id="base"
     pagecolor="#ffffff"
     bordercolor="#666666"
     borderopacity="1.0"
     inkscape:pageopacity="0.0"
     inkscape:pageshadow="2"
     inkscape:zoom="0.78267174"
     inkscape:cx="88.699359"
     inkscape:cy="518.44466"
     inkscape:document-units="mm"
     inkscape:current-layer="layer1"
     showgrid="false"
     inkscape:window-width="1920"
     inkscape:window-height="1016"
     inkscape:window-x="0"
     inkscape:window-y="27"
     inkscape:window-maximized="1" />
  <metadata
     id="metadata5">
    <rdf:RDF>
      <cc:Work
         rdf:about="">
        <dc:format>image/svg+xml</dc:format>
        <dc:type
           rdf:resource="http://purl.org/dc/dcmitype/StillImage" />
        <dc:title></dc:title>
      </cc:Work>
    </rdf:RDF>
  </metadata>
  <g
     inkscape:label="Layer 1"
     inkscape:groupmode="layer"
     id="layer1">
    <path
       style="fill:#ff0000;stroke-width:0.19129343"
       d="m 94.605967,136.53586 h 27.970243 v 52.16071 H 94.605967 Z"
       id="rect10"
       inkscape:connector-curvature="0" />
    <path
       style="fill:#00aad4;stroke-width:0.26458332"
       d="m 94.605967,203.05967 h 9.071433 v 60.47618 h -9.071433 z"
       id="rect12"
       inkscape:connector-curvature="0" />
    <path
       style="fill:#00aad4;stroke-width:0.26458332"
       d="m 113.50478,203.05967 h 9.07143 v 60.47618 h -9.07143 z"
       id="rect12-3"
       inkscape:connector-curvature="0" />
    <path
       style="fill:#ffccaa;stroke-width:0.26458332"
       d="M 131.64763,116.69211 A 20.977676,19.843752 0 0 1 110.66996,136.53586 20.977676,19.843752 0 0 1 89.692278,116.69211 20.977676,19.843752 0 0 1 110.66996,96.848357 20.977676,19.843752 0 0 1 131.64763,116.69211 Z"
       id="path41"
       inkscape:connector-curvature="0" />
    <path
       style="fill:#00aad4;stroke-width:0.26458332"
       d="m 94.605967,188.31861 h 27.970243 v 14.74106 H 94.605967 Z"
       id="rect45"
       inkscape:connector-curvature="0" />
    <path
       style="fill:#ff2a2a;stroke-width:0.26458332"
       d="m 127.78136,138.78337 35.74201,15.43289 c 2.88365,1.24512 4.20276,4.569 2.95764,7.45265 -1.24512,2.88366 -4.56901,4.20277 -7.45266,2.95765 l -35.74201,-15.4329 c -2.88365,-1.24512 -4.20276,-4.569 -2.95763,-7.45266 1.24511,-2.88365 4.569,-4.20275 7.45265,-2.95763 z"
       id="rect47"
       inkscape:connector-curvature="0" />
    <path
       style="fill:#ff2a2a;stroke-width:0.27051929"
       d="m 59.332171,117.52555 32.319632,16.49357 c 2.732133,1.39428 3.728904,4.67341 2.234909,7.35232 -1.493995,2.67891 -4.896255,3.7131 -7.628387,2.31882 L 53.938692,127.1967 c -2.732133,-1.39428 -3.728904,-4.67342 -2.234909,-7.35232 1.493995,-2.67891 4.896254,-3.71311 7.628388,-2.31883 z"
       id="rect49"
       inkscape:connector-curvature="0" />
    <path
       style="fill:#ffffff;stroke-width:0.26458332"
       d="m 105.56728,112.34538 a 4.5357141,3.0238097 0 0 1 -4.53571,3.02381 4.5357141,3.0238097 0 0 1 -4.535719,-3.02381 4.5357141,3.0238097 0 0 1 4.535719,-3.02381 4.5357141,3.0238097 0 0 1 4.53571,3.02381 z"
       id="path59"
       inkscape:connector-curvature="0" />
    <path
       style="fill:#ffffff;stroke-width:0.26458332"
       d="m 126.35598,113.10133 a 4.5357141,3.0238097 0 0 1 -4.53572,3.02381 4.5357141,3.0238097 0 0 1 -4.53571,-3.02381 4.5357141,3.0238097 0 0 1 4.53571,-3.0238 4.5357141,3.0238097 0 0 1 4.53572,3.0238 z"
       id="path59-6"
       inkscape:connector-curvature="0" />
    <path
       style="fill:#1a1a1a;stroke-width:0.26458332"
       d="m 103.71732,113.70821 a 2.4568453,1.7008928 0 0 1 -2.45684,1.7009 2.4568453,1.7008928 0 0 1 -2.456848,-1.7009 2.4568453,1.7008928 0 0 1 2.456848,-1.70089 2.4568453,1.7008928 0 0 1 2.45684,1.70089 z"
       id="path80"
       inkscape:connector-curvature="0" />
    <path
       style="fill:#1a1a1a;stroke-width:0.26458332"
       id="path80-7"
       ry="1.7008928"
       rx="2.4568453"
       cy="105.17708"
       cx="84.099701"
       d=""
       inkscape:connector-curvature="0" />
    <path
       style="fill:#1a1a1a;stroke-width:0.26458332"
       id="path80-5"
       ry="1.7008928"
       rx="2.4568453"
       cy="105.17708"
       cx="84.099701"
       d=""
       inkscape:connector-curvature="0" />
    <path
       style="fill:#1a1a1a;stroke-width:0.26458332"
       id="path80-3"
       ry="1.7008928"
       rx="2.4568453"
       cy="105.17708"
       cx="84.099701"
       d=""
       inkscape:connector-curvature="0" />
    <path
       style="fill:#1a1a1a;stroke-width:0.26458332"
       id="path80-56"
       ry="1.7008928"
       rx="2.4568453"
       cy="105.17708"
       cx="84.099701"
       d=""
       inkscape:connector-curvature="0" />
    <path
       style="fill:#1a1a1a;stroke-width:0.26458332"
       id="path80-2"
       ry="1.7008928"
       rx="2.4568453"
       cy="105.17708"
       cx="84.099701"
       d=""
       inkscape:connector-curvature="0" />
    <path
       style="fill:#1a1a1a;stroke-width:0.26458332"
       id="path80-9"
       ry="1.7008928"
       rx="2.4568453"
       cy="105.17708"
       cx="84.099701"
       d=""
       inkscape:connector-curvature="0" />
    <path
       style="fill:#1a1a1a;stroke-width:0.26458332"
       id="path80-1"
       ry="1.7008928"
       rx="2.4568453"
       cy="105.17708"
       cx="84.099701"
       d=""
       inkscape:connector-curvature="0" />
    <path
       style="fill:#1a1a1a;stroke-width:0.26458332"
       id="path80-27"
       ry="1.7008928"
       rx="2.4568453"
       cy="105.17708"
       cx="84.099701"
       d=""
       inkscape:connector-curvature="0" />
    <path
       style="fill:#1a1a1a;stroke-width:0.26458332"
       d="m 124.08811,114.31511 a 2.2678571,1.8898809 0 0 1 -2.26786,1.88988 2.2678571,1.8898809 0 0 1 -2.26786,-1.88988 2.2678571,1.8898809 0 0 1 2.26786,-1.88988 2.2678571,1.8898809 0 0 1 2.26786,1.88988 z"
       id="path181"
       inkscape:connector-curvature="0" />
    <path
       style="fill:#1a1a1a;stroke-width:0.18727383"
       d="m 121.70316,124.95009 a 17.406322,11.796246 76.790678 0 1 -9.13198,6.9656 17.406322,11.796246 76.790678 0 1 -10.64883,-7.82427"
       id="path189"
       inkscape:connector-curvature="0" />
    <path
       style="opacity:0.2;fill:#ffffff;fill-opacity:1;stroke:#000000;stroke-width:0.29997584;stroke-miterlimit:4;stroke-dasharray:none;stroke-opacity:1"
       inkscape:transform-center-x="5.746875"
       inkscape:transform-center-y="1.3522059"
       d="m 117.12937,109.59953 h 12.30443 c 0.73036,0 1.31834,1.52902 1.31834,3.42829 v 2.03691 c 0,1.89927 -0.58798,3.42828 -1.31834,3.42828 h -12.30443 c -0.73035,0 -1.31833,-1.52901 -1.31833,-3.42828 v -2.03691 c 0,-1.89927 0.58798,-3.42829 1.31833,-3.42829 z"
       id="rect193-0"
       inkscape:connector-curvature="0" />
    <path
       style="opacity:0.2;fill:#ffffff;fill-opacity:1;stroke:#000000;stroke-width:0.29997584;stroke-miterlimit:4;stroke-dasharray:none;stroke-opacity:1"
       d="m 92.650656,109.23827 h 12.304434 c 0.73035,0 1.31833,1.52901 1.31833,3.42828 v 2.03691 c 0,1.89927 -0.58798,3.42828 -1.31833,3.42828 H 92.650656 c -0.730356,0 -1.318332,-1.52901 -1.318332,-3.42828 v -2.03691 c 0,-1.89927 0.587976,-3.42828 1.318332,-3.42828 z"
       id="rect193-0-3"
       inkscape:connector-curvature="0" />
    <rect
       style="opacity:0.2;fill:#ffffff;fill-opacity:1;stroke:#000000;stroke-width:0.5;stroke-miterlimit:4;stroke-dasharray:none;stroke-opacity:1"
       id="rect6245"
       width="33.467087"
       height="0"
       x="-140.96745"
       y="103.63456"
       rx="1.3183314"
       ry="0" />
    <rect
       style="opacity:0.2;fill:#000000;fill-opacity:1;stroke:#000000;stroke-width:0.17545561;stroke-miterlimit:4;stroke-dasharray:none;stroke-opacity:1"
       id="rect6253"
       width="10.545204"
       height="0.30826002"
       x="105.56728"
       y="-112.65364"
       rx="0.53407961"
       transform="scale(1,-1)" />
    <rect
       style="opacity:0.2;fill:#e6e6e6;fill-opacity:1;stroke:#000000;stroke-width:0.5;stroke-miterlimit:4;stroke-dasharray:none;stroke-opacity:1"
       id="rect6303"
       width="144.68604"
       height="236.63602"
       x="37.861763"
       y="36.362316"
       rx="0.53407997" />
  </g>
</svg>
