<?xml version="1.0" encoding="UTF-8" standalone="no"?>
<!-- Created with Inkscape (http://www.inkscape.org/) -->

<svg
   xmlns:osb="http://www.openswatchbook.org/uri/2009/osb"
   xmlns:dc="http://purl.org/dc/elements/1.1/"
   xmlns:cc="http://creativecommons.org/ns#"
   xmlns:rdf="http://www.w3.org/1999/02/22-rdf-syntax-ns#"
   xmlns:svg="http://www.w3.org/2000/svg"
   xmlns="http://www.w3.org/2000/svg"
   xmlns:sodipodi="http://sodipodi.sourceforge.net/DTD/sodipodi-0.dtd"
   xmlns:inkscape="http://www.inkscape.org/namespaces/inkscape"
   width="210mm"
   height="297mm"
   viewBox="0 0 210 297"
   version="1.1"
   id="svg8"
   inkscape:version="0.92.1 unknown"
   sodipodi:docname="potato-guy.svg">
  <defs
     id="defs2">
    <linearGradient
       id="linearGradient6151"
       osb:paint="solid">
      <stop
         style="stop-color:#1a1a1a;stop-opacity:1;"
         offset="0"
         id="stop6149" />
    </linearGradient>
  </defs>
  <sodipodi:namedview
     id="base"
     pagecolor="#ffffff"
     bordercolor="#666666"
     borderopacity="1.0"
     inkscape:pageopacity="0.0"
     inkscape:pageshadow="2"
     inkscape:zoom="0.55343249"
     inkscape:cx="167.30774"
     inkscape:cy="495.69651"
     inkscape:document-units="mm"
     inkscape:current-layer="layer1"
     showgrid="false"
     inkscape:window-width="1920"
     inkscape:window-height="1016"
     inkscape:window-x="0"
     inkscape:window-y="27"
     inkscape:window-maximized="1" />
  <metadata
     id="metadata5">
    <rdf:RDF>
      <cc:Work
         rdf:about="">
        <dc:format>image/svg+xml</dc:format>
        <dc:type
           rdf:resource="http://purl.org/dc/dcmitype/StillImage" />
        <dc:title />
      </cc:Work>
    </rdf:RDF>
  </metadata>
  <g
     inkscape:label="Layer 1"
     inkscape:groupmode="layer"
     id="layer1">
    <path
       style="fill:#ff0000;stroke-width:0.25697407"
       d="m 82.458976,127.9032 h 40.321374 v 65.29544 H 82.458976 Z"
       id="rect10"
       inkscape:connector-curvature="0" />
    <path
       style="fill:#00aad4;stroke-width:0.35542807"
       d="M 82.458976,211.17855 H 95.536184 V 286.8834 H 82.458976 Z"
       id="rect12"
       inkscape:connector-curvature="0" />
    <path
       style="fill:#00aad4;stroke-width:0.35542807"
       d="m 109.70315,211.17855 h 13.0772 v 75.70485 h -13.0772 z"
       id="rect12-3"
       inkscape:connector-curvature="0" />
    <path
       style="fill:#ffccaa;stroke-width:0.35542807"
       d="M 135.85755,103.06254 A 30.241025,24.84066 0 0 1 105.61652,127.9032 30.241025,24.84066 0 0 1 75.375494,103.06254 30.241025,24.84066 0 0 1 105.61652,78.22188 30.241025,24.84066 0 0 1 135.85755,103.06254 Z"
       id="path41"
       inkscape:connector-curvature="0" />
    <path
       style="fill:#00aad4;stroke-width:0.35542807"
       d="m 82.458976,192.7255 h 40.321374 v 18.45305 H 82.458976 Z"
       id="rect45"
       inkscape:connector-curvature="0" />
    <path
       style="fill:#ff2a2a;stroke-width:0.35542807"
       d="m 130.284,130.71666 51.52501,19.31909 c 4.15701,1.55866 6.05862,5.71954 4.26369,9.32933 -1.79497,3.60978 -6.58662,5.26106 -10.74362,3.70241 l -51.52501,-19.3191 c -4.15702,-1.55866 -6.05862,-5.71953 -4.26368,-9.32933 1.79493,-3.6098 6.58659,-5.26106 10.74361,-3.7024 z"
       id="rect47"
       inkscape:connector-curvature="0" />
    <path
       style="fill:#ff2a2a;stroke-width:0.3634021"
       d="m 31.608934,104.10585 46.591374,20.64686 c 3.938592,1.74538 5.375519,5.85023 3.221804,9.20374 -2.153716,3.35349 -7.05835,4.64809 -10.99694,2.90272 L 23.833796,116.21233 c -3.938591,-1.74539 -5.375519,-5.85024 -3.221803,-9.20373 2.153715,-3.3535 7.058348,-4.64813 10.996941,-2.90275 z"
       id="rect49"
       inkscape:connector-curvature="0" />
    <path
       style="fill:#ffffff;stroke-width:0.35542807"
       d="m 98.260599,97.621255 a 6.5386003,3.7852433 0 0 1 -6.538594,3.785245 6.5386003,3.7852433 0 0 1 -6.538607,-3.785245 6.5386003,3.7852433 0 0 1 6.538607,-3.785247 6.5386003,3.7852433 0 0 1 6.538594,3.785247 z"
       id="path59"
       inkscape:connector-curvature="0" />
    <path
       style="fill:#ffffff;stroke-width:0.35542807"
       d="m 128.22921,98.567559 a 6.5386003,3.7852433 0 0 1 -6.53863,3.785241 6.5386003,3.7852433 0 0 1 -6.53858,-3.785241 6.5386003,3.7852433 0 0 1 6.53858,-3.785231 6.5386003,3.7852433 0 0 1 6.53863,3.785231 z"
       id="path59-6"
       inkscape:connector-curvature="0" />
    <path
       style="fill:#1a1a1a;stroke-width:0.35542807"
       d="m 95.593732,99.327259 a 3.5417422,2.1291991 0 0 1 -3.541734,2.129211 3.5417422,2.1291991 0 0 1 -3.541747,-2.129211 3.5417422,2.1291991 0 0 1 3.541747,-2.129197 3.5417422,2.1291991 0 0 1 3.541734,2.129197 z"
       id="path80"
       inkscape:connector-curvature="0" />
    <path
       style="fill:#1a1a1a;stroke-width:0.26458332"
       id="path80-7"
       ry="1.7008928"
       rx="2.4568453"
       cy="105.17708"
       cx="84.099701"
       d=""
       inkscape:connector-curvature="0" />
    <path
       style="fill:#1a1a1a;stroke-width:0.26458332"
       id="path80-5"
       ry="1.7008928"
       rx="2.4568453"
       cy="105.17708"
       cx="84.099701"
       d=""
       inkscape:connector-curvature="0" />
    <path
       style="fill:#1a1a1a;stroke-width:0.26458332"
       id="path80-3"
       ry="1.7008928"
       rx="2.4568453"
       cy="105.17708"
       cx="84.099701"
       d=""
       inkscape:connector-curvature="0" />
    <path
       style="fill:#1a1a1a;stroke-width:0.26458332"
       id="path80-56"
       ry="1.7008928"
       rx="2.4568453"
       cy="105.17708"
       cx="84.099701"
       d=""
       inkscape:connector-curvature="0" />
    <path
       style="fill:#1a1a1a;stroke-width:0.26458332"
       id="path80-2"
       ry="1.7008928"
       rx="2.4568453"
       cy="105.17708"
       cx="84.099701"
       d=""
       inkscape:connector-curvature="0" />
    <path
       style="fill:#1a1a1a;stroke-width:0.26458332"
       id="path80-9"
       ry="1.7008928"
       rx="2.4568453"
       cy="105.17708"
       cx="84.099701"
       d=""
       inkscape:connector-curvature="0" />
    <path
       style="fill:#1a1a1a;stroke-width:0.26458332"
       id="path80-1"
       ry="1.7008928"
       rx="2.4568453"
       cy="105.17708"
       cx="84.099701"
       d=""
       inkscape:connector-curvature="0" />
    <path
       style="fill:#1a1a1a;stroke-width:0.26458332"
       id="path80-27"
       ry="1.7008928"
       rx="2.4568453"
       cy="105.17708"
       cx="84.099701"
       d=""
       inkscape:connector-curvature="0" />
    <path
       style="fill:#1a1a1a;stroke-width:0.35542807"
       d="m 124.95988,100.08698 a 3.2693003,2.3657769 0 0 1 -3.26931,2.36578 3.2693003,2.3657769 0 0 1 -3.2693,-2.36578 3.2693003,2.3657769 0 0 1 3.2693,-2.365771 3.2693003,2.3657769 0 0 1 3.26931,2.365771 z"
       id="path181"
       inkscape:connector-curvature="0" />
    <path
       style="fill:#1a1a1a;stroke-width:0.25157434"
       d="m 121.52178,113.39997 a 22.036113,16.814901 69.787219 0 1 -13.16449,8.71965 22.036113,16.814901 69.787219 0 1 -15.351154,-9.79453"
       id="path189"
       inkscape:connector-curvature="0" />
    <path
       style="opacity:0.2;fill:#ffffff;fill-opacity:1;stroke:#000000;stroke-width:0.40297261;stroke-miterlimit:4;stroke-dasharray:none;stroke-opacity:1"
       inkscape:transform-center-x="8.2845882"
       inkscape:transform-center-y="1.6927078"
       d="m 114.92829,94.183961 h 17.73782 c 1.05289,0 1.90051,1.914042 1.90051,4.291575 v 2.549834 c 0,2.37753 -0.84762,4.29156 -1.90051,4.29156 h -17.73782 c -1.05285,0 -1.90048,-1.91403 -1.90048,-4.29156 v -2.549834 c 0,-2.377533 0.84763,-4.291575 1.90048,-4.291575 z"
       id="rect193-0"
       inkscape:connector-curvature="0" />
    <path
       style="opacity:0.2;fill:#ffffff;fill-opacity:1;stroke:#000000;stroke-width:0.40297261;stroke-miterlimit:4;stroke-dasharray:none;stroke-opacity:1"
       d="m 79.640237,93.73173 h 17.73784 c 1.05286,0 1.900479,1.914036 1.900479,4.291568 v 2.549822 c 0,2.37753 -0.847619,4.29158 -1.900479,4.29158 h -17.73784 c -1.052868,0 -1.900483,-1.91405 -1.900483,-4.29158 v -2.549822 c 0,-2.377532 0.847615,-4.291568 1.900483,-4.291568 z"
       id="rect193-0-3"
       inkscape:connector-curvature="0" />
    <rect
       style="opacity:0.2;fill:#ffffff;fill-opacity:1;stroke:#000000;stroke-width:0.5;stroke-miterlimit:4;stroke-dasharray:none;stroke-opacity:1"
       id="rect6245"
       width="33.467087"
       height="0"
       x="-140.96745"
       y="103.63456"
       rx="1.3183314"
       ry="0" />
    <path
       style="opacity:0.2;fill:#000000;fill-opacity:1;stroke:#000000;stroke-width:0.23569833;stroke-miterlimit:4;stroke-dasharray:none;stroke-opacity:1"
       d="m 99.030519,98.007132 h 13.661931 c 0.42654,0 0.76992,-0.08602 0.76992,-0.192944 0,-0.106873 -0.34338,-0.192933 -0.76992,-0.192933 H 99.030519 c -0.426534,0 -0.76992,0.08602 -0.76992,0.192933 0,0.106863 0.343386,0.192944 0.76992,0.192944 z"
       id="rect6253"
       inkscape:connector-curvature="0" />
    <path
       style="opacity:0.2;fill:#e6e6e6;fill-opacity:1;stroke:#000000;stroke-width:0.6737957;stroke-miterlimit:4;stroke-dasharray:none;stroke-opacity:1"
       d="M 1.1226437,1.0697241 H 208.46394 c 0.42718,0 0.77106,0.299628 0.77106,0.6718088 V 298.05758 c 0,0.37218 -0.34388,0.6718 -0.77106,0.6718 H 1.1226437 c -0.42716251,0 -0.77105145,-0.29962 -0.77105145,-0.6718 V 1.7415329 c 0,-0.3721808 0.34388894,-0.6718088 0.77105145,-0.6718088 z"
       id="rect6303"
       inkscape:connector-curvature="0" />
  </g>
</svg>
